<svg xmlns="http://www.w3.org/2000/svg" width="418" height="331" viewBox="0 0 418 331" fill="none"><path d="M228.477 176.391L223.27 174.668L225.2 168.836C225.485 167.975 225.558 167.152 225.417 166.366C225.286 165.552 224.966 164.845 224.456 164.245C223.955 163.617 223.302 163.17 222.496 162.903C221.247 162.489 220.082 162.612 219.001 163.271C217.929 163.902 217.159 164.926 216.69 166.342L214.856 171.882L209.649 170.158L211.524 164.355C212.177 162.291 213.182 160.605 214.539 159.298C215.868 157.982 217.388 157.114 219.098 156.694C220.809 156.274 222.594 156.372 224.455 156.988C226.287 157.595 227.769 158.609 228.901 160.032C230.014 161.417 230.706 163.048 230.978 164.925C231.223 166.793 231.005 168.755 230.324 170.81L228.477 176.391ZM237.138 184.851L207.981 175.198L209.87 169.492L239.027 179.145L237.138 184.851ZM242.447 168.815L228.509 171.688L226.832 166.28L244.584 162.358L242.447 168.815Z" fill="black"></path><path d="M2.6748 57.8427L209.033 327.959L416.076 57.8427" stroke="#828282" stroke-width="2.7423" stroke-dasharray="8.23 10.97"></path><path d="M132.934 9.16687V9.16687C145.126 11.4246 156.674 16.3299 166.763 23.5367L167.517 24.0752C175.931 30.0854 185.345 34.5547 195.321 37.2754V37.2754" stroke="#828282" stroke-width="2.7423"></path><path d="M284.446 9.16687V9.16687C272.622 11.3057 261.444 16.1194 251.765 23.2401L250.397 24.2464C242.18 30.2922 232.954 34.8304 223.149 37.6495L222.93 37.7123" stroke="#828282" stroke-width="2.7423"></path><path d="M1.23804 59.5606C63.7274 22.067 135.146 2.05947 208.019 1.63202C280.893 1.20457 353.151 22.4558 416.076 59.2138" stroke="#828282" stroke-width="2.7423"></path><path d="M2.6748 59.2137H416.762" stroke="#828282" stroke-width="2.7423"></path><path d="M305.539 15.3794C305.183 14.7106 304.353 14.4564 303.684 14.8117L292.786 20.6008C292.117 20.956 291.863 21.7861 292.219 22.4549C292.574 23.1237 293.404 23.3778 294.073 23.0226L303.76 17.8767L308.906 27.564C309.261 28.2328 310.091 28.4869 310.76 28.1317C311.429 27.7764 311.683 26.9463 311.328 26.2775L305.539 15.3794ZM210.344 327.675L305.639 16.424L303.017 15.6212L207.722 326.872L210.344 327.675Z" fill="#828282"></path><circle cx="209.033" cy="324.531" r="6.17017" fill="#828282"></circle><circle cx="209.033" cy="59.2138" r="26.0518" fill="white" stroke="#828282" stroke-width="2.7423"></circle></svg>